<svg width="96" height="96" viewBox="0 0 96 96" fill="none" xmlns="http://www.w3.org/2000/svg">
<path d="M48 66C53 66 57.2507 64.2507 60.752 60.752C64.2533 57.2533 66.0027 53.0027 66 48C65.9973 42.9973 64.248 38.748 60.752 35.252C57.256 31.756 53.0053 30.0053 48 30C42.9947 29.9947 38.7453 31.7453 35.252 35.252C31.7587 38.7587 30.008 43.008 30 48C29.992 52.992 31.7427 57.2427 35.252 60.752C38.7613 64.2613 43.0107 66.0107 48 66ZM48 52C46.8667 52 45.9173 51.616 45.152 50.848C44.3867 50.08 44.0027 49.1307 44 48C43.9973 46.8693 44.3813 45.92 45.152 45.152C45.9227 44.384 46.872 44 48 44C49.128 44 50.0787 44.384 50.852 45.152C51.6253 45.92 52.008 46.8693 52 48C51.992 49.1307 51.608 50.0813 50.848 50.852C50.088 51.6227 49.1387 52.0053 48 52ZM48 88C42.4667 88 37.2667 86.9493 32.4 84.848C27.5333 82.7467 23.3 79.8973 19.7 76.3C16.1 72.7027 13.2507 68.4693 11.152 63.6C9.05334 58.7307 8.00267 53.5307 8.00001 48C7.99734 42.4693 9.04801 37.2693 11.152 32.4C13.256 27.5307 16.1053 23.2973 19.7 19.7C23.2947 16.1027 27.528 13.2533 32.4 11.152C37.272 9.05067 42.472 8 48 8C53.528 8 58.728 9.05067 63.6 11.152C68.472 13.2533 72.7053 16.1027 76.3 19.7C79.8947 23.2973 82.7453 27.5307 84.852 32.4C86.9587 37.2693 88.008 42.4693 88 48C87.992 53.5307 86.9413 58.7307 84.848 63.6C82.7547 68.4693 79.9053 72.7027 76.3 76.3C72.6947 79.8973 68.4613 82.748 63.6 84.852C58.7387 86.956 53.5387 88.0053 48 88Z" fill="#00ACE0"/>
</svg>
